<?xml version="1.0" encoding="UTF-8"?>
<svg id="Layer_1" xmlns="http://www.w3.org/2000/svg" version="1.1" viewBox="0 0 1123.28 1123.28">
  <!-- Generator: Adobe Illustrator 29.5.0, SVG Export Plug-In . SVG Version: 2.1.0 Build 137)  -->
  <defs>
    <style>
      .st0 {
        fill: #1d3449;
      }

      .st1 {
        fill: #e0ffab;
      }
    </style>
  </defs>
  <circle class="st1" cx="561.64" cy="561.64" r="561.64"/>
  <path class="st0" d="M842.12,261.52c-69.68-95.72-225.26-44.15-319.15-18.03-170.77,53.4-295.95,166.73-248.46,360.19,4.94,29.14,9.53,60.55,13.91,92.84-33.88-7.63-66.46-20.72-96.14-40.78,27.08,27.52,61.69,48.26,98.93,61.68,8.3,63.08,15.87,128.36,23.58,185.91,0,0,10.33,80.63,10.33,80.63,21.95-44.4,57.39-100.09,73.07-147.08,11.91-31.18,13.65-64.82,18.51-97.44,175.19,4.7,374.3-84.83,445.97-239.29,35.18-74.9,24.71-169.54-20.54-238.64ZM363.67,815.34c-.58-26.92-1.28-53.8-2.31-80.7,9.13,1.37,18.37,2.45,27.71,3.25-7.75,26.15-13.91,52.91-25.4,77.45ZM788.05,469.35c-56.7,135.46-222.58,213.22-363.38,232.36,2.56-8.55,5.73-16.93,9.81-25.06,11.35-23.27,32.34-44.55,60.34-43.56-28.61-7.68-57.71,12.45-73.89,35.13-8.45,11.22-14.87,23.27-20.12,35.79-13.55.94-27.15,1.3-40.73.99-1.84-38.09-4.49-76.27-8.61-114.73-7.78-50.82-6.11-105.87,22.68-146.94,63.98-87.49,187.74-116.17,289.96-138.49,33.42-4.65,77.51-14.71,102.9,6.19,32.58,45.77,41.83,105.01,21.03,158.34Z"/>
</svg>